<svg id="svg6" clip-rule="evenodd" fill-rule="evenodd" height="512" stroke-linejoin="round" stroke-miterlimit="2" viewBox="0 0 32 32" width="512" xmlns="http://www.w3.org/2000/svg" xmlns:svg="http://www.w3.org/2000/svg"><path id="path2" d="m16 2c-7.727 0-14 6.273-14 14s6.273 14 14 14 14-6.273 14-14-6.273-14-14-14zm0 2c6.623 0 12 5.377 12 12s-5.377 12-12 12-12-5.377-12-12 5.377-12 12-12zm-1 11h-8c-.552 0-1 .448-1 1s.448 1 1 1h8v8c0 .552.448 1 1 1s1-.448 1-1v-8h8c.552 0 1-.448 1-1s-.448-1-1-1h-8v-8c0-.552-.448-1-1-1s-1 .448-1 1z"/></svg>