<?xml version="1.0" encoding="utf-8"?>
<!-- Generator: Adobe Illustrator 26.3.1, SVG Export Plug-In . SVG Version: 6.00 Build 0)  -->
<svg version="1.1" id="Layer_1" xmlns="http://www.w3.org/2000/svg" xmlns:xlink="http://www.w3.org/1999/xlink" x="0px" y="0px"
	 viewBox="0 0 512 512" style="enable-background:new 0 0 512 512;" xml:space="preserve">
<style type="text/css">
	.st0{fill-rule:evenodd;clip-rule:evenodd;fill:#FF3F1F;}
</style>
<g transform="translate(-118 -82)">
	<path class="st0" d="M310,194h-96c-8.8,0-16,7.2-16,16s7.2,16,16,16h16v192c0,61.9,50.1,112,112,112h64c61.9,0,112-50.1,112-112
		V226h16c8.8,0,16-7.2,16-16s-7.2-16-16-16h-96v-32c0-8.8-7.2-16-16-16h-96c-8.8,0-16,7.2-16,16V194z M486,226H262v192
		c0,44.2,35.8,80,80,80h64c44.2,0,80-35.8,80-80V226z M358.1,274v176c0,8.8,7.2,16,16,16s16-7.2,16-16V274c0-8.8-7.2-16-16-16
		S358.1,265.2,358.1,274z M294,290v144c0,8.8,7.2,16,16,16s16-7.2,16-16V290c0-8.8-7.2-16-16-16S294,281.2,294,290z M422,290v144
		c0,8.8,7.2,16,16,16s16-7.2,16-16V290c0-8.8-7.2-16-16-16S422,281.2,422,290z M406,194h-64v-16h64V194z"/>
</g>
</svg>
