<svg clip-rule="evenodd" fill-rule="evenodd" height="512" stroke-linejoin="round" stroke-miterlimit="2" viewBox="0 0 32 32" width="512" xmlns="http://www.w3.org/2000/svg"><g transform="translate(-46 -82)"><path d="m67.007 97.116-4.399 4.399c-.123.122-.212.275-.258.442l-1.314 4.778c-.096.346.003.718.257.972s.625.352.972.257l4.778-1.314c.167-.046.32-.135.442-.258l7.505-7.504c1.347-1.347 1.347-3.53 0-4.877l-.001-.001c-1.347-1.347-3.53-1.347-4.877 0l-1.112 1.112v-1.122c0-.17-.042-.33-.117-.47l-.002-.003c-.041-.077-.094-.15-.157-.217l-.017-.017s-9-9-9-9l-.017-.017c-.067-.063-.14-.116-.217-.157l-.003-.002c-.14-.075-.3-.117-.47-.117h-3c-3.866 0-7 3.134-7 7v14c0 1.857.738 3.637 2.05 4.95 1.313 1.313 3.094 2.05 4.95 2.05h6c1.387 0 2.731-.411 3.869-1.167.46-.305.586-.926.281-1.386s-.926-.585-1.386-.28c-.813.539-1.774.833-2.764.833h-6c-1.326 0-2.598-.527-3.536-1.464-.937-.938-1.464-2.21-1.464-3.536v-14c0-2.761 2.239-5 5-5h2v4c0 1.326.527 2.598 1.464 3.536.938.937 2.21 1.464 3.536 1.464h4v2c0 .039.002.078.007.116zm-13.007 9.884h3.99c.552 0 1-.448 1-1s-.448-1-1-1h-3.99c-.552 0-1 .448-1 1s.448 1 1 1zm19.576-9.527-7.318 7.318s-2.827.778-2.827.778.778-2.827.778-2.827 7.318-7.318 7.318-7.318c.565-.565 1.482-.565 2.047 0 0 0 .002.002.002.002.565.565.565 1.482 0 2.047zm-19.576 5.527h4.979c.552 0 1-.448 1-1s-.448-1-1-1h-4.979c-.552 0-1 .448-1 1s.448 1 1 1zm0-4h7.979c.552 0 1-.448 1-1s-.448-1-1-1h-7.979c-.552 0-1 .448-1 1s.448 1 1 1zm6-11.586v2.586c0 .796.316 1.559.879 2.121.562.563 1.325.879 2.121.879h2.586z"/></g></svg>